# xmcd CD database file
#
# Track frame offsets:
#	150
#	25060
#	41395
#	64193
#	85628
#	112749
#	143060
#	172641
#	191981
#
# Disc length: 3035 seconds
#
# Revision: 0
# Processed by: cddbd v1.4PL0 Copyright (c) Steve Scherf et al.
# Submitted via: CDex 1.50
#
DISCID=650bd909
DTITLE=Torkom Saraydarian - Toward Freedom
DYEAR=1990
DGENRE=New Age
TTITLE0=Riding the Ridges with My Teacher
TTITLE1=In Front of a Statue of Buddha
TTITLE2=Spring is Here
TTITLE3=Love Dance
TTITLE4=King Arthur
TTITLE5=Om Mani Padme Hum
TTITLE6=Dance of Deer
TTITLE7=Bride Dance
TTITLE8=Good-Bye Torkom
EXTD=YEAR: 1990
EXTT0=
EXTT1=
EXTT2=
EXTT3=
EXTT4=
EXTT5=
EXTT6=
EXTT7=
EXTT8=
PLAYORDER=
